<svg width="32" height="32" viewBox="0 0 32 32" fill="none" xmlns="http://www.w3.org/2000/svg">
<rect width="32" height="32" fill="white"/>
<path d="M16.6 31.756C9.04 31.756 5.848 27.892 5.848 21.592V19.24C5.848 13.108 9.04 9.24402 16.6 9.24402C24.16 9.24402 27.352 13.108 27.352 19.24V21.76C27.352 27.892 24.16 31.756 16.6 31.756ZM16.6 26.548C20.044 26.548 21.388 24.196 21.388 21.046V19.87C21.388 16.51 20.044 14.452 16.6 14.452C13.072 14.452 11.812 16.51 11.812 19.87V21.046C11.812 24.196 13.072 26.548 16.6 26.548Z" fill="black"/>
</svg>
